<svg xmlns="http://www.w3.org/2000/svg" width="260" height="148" viewBox="0 0 260 148">
  <g id="Upload_Icons" data-name="Upload Icons" transform="translate(-832 -475.352)">
    <g id="Rectangle_25" data-name="Rectangle 25" transform="translate(832 475.352)" fill="none" stroke="#f1faee" stroke-width="2">
      <rect width="260" height="148" rx="10" stroke="none"/>
      <rect x="1" y="1" width="258" height="146" rx="9" fill="none"/>
    </g>
    <g id="Icon_feather-file-plus" data-name="Icon feather-file-plus" transform="translate(935.075 515.275)">
      <path id="Path_1" data-name="Path 1" d="M39.656,3H12.731A6.731,6.731,0,0,0,6,9.731V63.58a6.731,6.731,0,0,0,6.731,6.731H53.118a6.731,6.731,0,0,0,6.731-6.731V23.193Z" transform="translate(-6 -3)" fill="none" stroke="#f1faee" stroke-linecap="round" stroke-linejoin="round" stroke-width="3"/>
      <path id="Path_2" data-name="Path 2" d="M21,3V23.193H41.193" transform="translate(12.656 -3)" fill="none" stroke="#f1faee" stroke-linecap="round" stroke-linejoin="round" stroke-width="3"/>
      <path id="Path_3" data-name="Path 3" d="M18,38.193V18" transform="translate(8.925 15.656)" fill="none" stroke="#f1faee" stroke-linecap="round" stroke-linejoin="round" stroke-width="3"/>
      <path id="Path_4" data-name="Path 4" d="M13.5,22.5H33.693" transform="translate(3.328 21.252)" fill="none" stroke="#f1faee" stroke-linecap="round" stroke-linejoin="round" stroke-width="3"/>
    </g>
  </g>
</svg>
